<svg width="50" height="50" viewBox="0 0 36 36" fill="none" xmlns="http://www.w3.org/2000/svg">
    <circle cx="18" cy="18" r="18" fill="url(#paint0_linear)" />
    <circle cx="18" cy="18" r="17.5" stroke="#2E2E2E" stroke-opacity="0.85" />
    <path
        d="M11.5768 6.65956L11.5769 6.65942C11.8711 6.31059 12.2797 5.98751 12.8112 5.69388L12.8112 5.69391L12.8148 5.69182C13.3538 5.38212 13.7607 5.25 14.0499 5.25C14.211 5.25 14.2912 5.29678 14.3387 5.35476C14.394 5.42232 14.4429 5.55151 14.4429 5.78566V26.0119C14.4429 26.3865 14.3193 26.5702 14.1278 26.6624C13.8841 26.7728 13.47 26.8399 12.8556 26.8399C12.1789 26.8399 11.7465 26.7724 11.5178 26.6661C11.3643 26.5801 11.25 26.3983 11.25 26.0119V7.72242C11.25 7.25278 11.3674 6.90743 11.5768 6.65956ZM24.397 29.3778L24.397 29.3778L24.3945 29.3824C24.1611 29.8119 23.8897 30.1665 23.5822 30.4498C23.3818 30.6304 23.0123 30.75 22.4094 30.75H11.7533C11.5435 30.75 11.4314 30.6958 11.3688 30.6306C11.3043 30.5633 11.25 30.4403 11.25 30.2143V28.7892C11.25 28.5633 11.3043 28.4402 11.3688 28.3729C11.4314 28.3077 11.5435 28.2535 11.7533 28.2535H24.21C24.451 28.2535 24.5868 28.2981 24.6568 28.3483C24.7115 28.3875 24.75 28.4465 24.75 28.5699C24.75 28.6039 24.7341 28.6865 24.6726 28.8351C24.6138 28.977 24.5229 29.1573 24.397 29.3778Z"
        fill="#F2DC99" stroke="#BF8C4E" stroke-width="0.5" />
    <defs>
        <linearGradient id="paint0_linear" x1="6" y1="5" x2="30" y2="31.5" gradientUnits="userSpaceOnUse">
            <stop stop-color="#2E2E2E" />
            <stop offset="0.591457" stop-color="#2E2E2E" stop-opacity="0.85" />
            <stop offset="0.933027" stop-color="#2E2E2E" stop-opacity="0.71" />
        </linearGradient>
    </defs>
</svg>